HIERARCHY
ROOT pelvis
{
  OFFSET 0 100 0
  CHANNELS 6 Xposition Yposition Zposition Zrotation Xrotation Yrotation
  JOINT pelvis_right_femur
  {
    OFFSET -10.78128 -3.44521 -0.5502486
    CHANNELS 3 Zrotation Xrotation Yrotation
    JOINT right_femur_tibia
    {
      OFFSET -0.8047443 -44.0398 -0.1307829
      CHANNELS 3 Zrotation Xrotation Yrotation
      JOINT right_tibia_foot
      {
        OFFSET 3.006224 -47.83518 -5
        CHANNELS 3 Zrotation Xrotation Yrotation
        End Site
        {
          OFFSET 0 -5 15
        }
      }
    }
  }
  JOINT pelvis_left_femur
  {
    OFFSET 10.78128 -3.44521 -0.5502486
    CHANNELS 3 Zrotation Xrotation Yrotation
    JOINT left_femur_tibia
    {
      OFFSET 0.8047443 -44.0398 -0.1307829
      CHANNELS 3 Zrotation Xrotation Yrotation
      JOINT left_tibia_foot
      {
        OFFSET -4.370144 -48.10324 -4.275266
        CHANNELS 3 Zrotation Xrotation Yrotation
        End Site
        {
          OFFSET 0 -5 15
        }
      }
    }
  }
  JOINT pelvis_spine1
  {
    OFFSET 0 6.468898 -3.129235
    CHANNELS 3 Zrotation Xrotation Yrotation
    JOINT spine1
    {
      OFFSET 0 23.15396 4.99043
      CHANNELS 3 Zrotation Xrotation Yrotation
      JOINT spine2
      {
        OFFSET 0 20.79997 -5.064912
        CHANNELS 3 Zrotation Xrotation Yrotation
        JOINT neck
        {
          OFFSET 0 14.38658 9.616178
          CHANNELS 3 Zrotation Xrotation Yrotation
          End Site
          {
            OFFSET 0 20 0
          }
        }
      }
      JOINT right_manubrium
      {
        OFFSET -5.722621 16.35077 3.967754
        CHANNELS 3 Zrotation Xrotation Yrotation
        JOINT right_clavicle
        {
          OFFSET -13.16364 1.694482 -4.693211
          CHANNELS 3 Zrotation Xrotation Yrotation
          JOINT right_humerus
          {
            OFFSET -28.5034 -0.3100689 -2.792744
            CHANNELS 3 Zrotation Xrotation Yrotation
            JOINT right_radius
            {
              OFFSET -25.15693 0.02248979 -1.271978
              CHANNELS 3 Zrotation Xrotation Yrotation
              End Site
              {
                OFFSET -15 0 0
              }
            }
          }
        }
      }
      JOINT left_manubrium
      {
        OFFSET 5.722621 16.35077 3.967754
        CHANNELS 3 Zrotation Xrotation Yrotation
        JOINT left_clavicle
        {
          OFFSET 13.16364 1.694482 -4.693211
          CHANNELS 3 Zrotation Xrotation Yrotation
          JOINT left_humerus
          {
            OFFSET 29.39168 -1.063119 -2.237045
            CHANNELS 3 Zrotation Xrotation Yrotation
            JOINT left_radius
            {
              OFFSET 24.59957 -0.9528479 0.9047498
              CHANNELS 3 Zrotation Xrotation Yrotation
              End Site
              {
                OFFSET 15 -0 -0
              }
            }
          }
        }
      }
    }
  }
}
MOTION
Frames: 13
Frame Time: 0.0416666666667
-31.81053 107.5464 122.311 1.822508 -12.79425 13.82399 6.502059 9.769643 1.690937 -0 21.79011 -0 -4.70119 -5.274287 -2.74719 3.830313 -7.980463 -1.363325 -0 14.01332 -0 2.547226 0.3090175 13.86467 3.018497 -5.697992 7.654931 -0.2677619 20.30703 -6.569641 1.03218 17.22015 2.613697 0.4366366 -16.09547 4.139973 -1.286204 -33.08146 14.04309 91.39122 7.798965 -12.70564 -0 0 30.49363 -32.24375 23.29309 19.5466 1.57679 -25.27495 -11.37894 -92.26503 5.771834 36.98482 0 0 -14.55201 4.790542 12.9276 7.618832
-29.08133 107.5384 128.3119 1.649072 -12.81738 13.04151 6.502059 9.769643 1.690937 -0 21.79011 -0 -4.70119 -5.274287 -2.74719 3.830313 -7.980463 -1.363325 -0 14.01332 -0 2.547226 0.3090175 13.86467 3.018497 -5.697992 7.654931 -0.2677619 20.30703 -6.569641 1.03218 17.22015 2.613697 0.4366366 -16.09547 4.139973 -1.286204 -33.08146 14.04309 91.39122 7.798965 -12.70564 -0 0 30.49363 -32.24375 23.29309 19.5466 1.57679 -25.27495 -11.37894 -92.26503 5.771834 36.98482 0 0 -14.55201 4.790542 12.9276 7.618832
-26.43233 107.5303 134.3486 1.475314 -12.83819 12.25891 6.502059 9.769643 1.690937 -0 21.79011 -0 -4.70119 -5.274287 -2.74719 3.830313 -7.980463 -1.363325 -0 14.01332 -0 2.547226 0.3090175 13.86467 3.018497 -5.697992 7.654931 -0.2677619 20.30703 -6.569641 1.03218 17.22015 2.613697 0.4366366 -16.09547 4.139973 -1.286204 -33.08146 14.04309 91.39122 7.798965 -12.70564 -0 0 30.49363 -32.24375 23.29309 19.5466 1.57679 -25.27495 -11.37894 -92.26503 5.771834 36.98482 0 0 -14.55201 4.790542 12.9276 7.618832
-23.86399 107.5222 140.4201 1.301267 -12.85668 11.47618 6.502059 9.769643 1.690937 -0 21.79011 -0 -4.70119 -5.274287 -2.74719 3.830313 -7.980463 -1.363325 -0 14.01332 -0 2.547226 0.3090175 13.86467 3.018497 -5.697992 7.654931 -0.2677619 20.30703 -6.569641 1.03218 17.22015 2.613697 0.4366366 -16.09547 4.139973 -1.286204 -33.08146 14.04309 91.39122 7.798965 -12.70564 -0 0 30.49363 -32.24375 23.29309 19.5466 1.57679 -25.27495 -11.37894 -92.26503 5.771834 36.98482 0 0 -14.55201 4.790542 12.9276 7.618832
-21.37676 107.5141 146.5252 1.126965 -12.87286 10.69334 6.502059 9.769643 1.690937 -0 21.79011 -0 -4.70119 -5.274287 -2.74719 3.830313 -7.980463 -1.363325 -0 14.01332 -0 2.547226 0.3090175 13.86467 3.018497 -5.697992 7.654931 -0.2677619 20.30703 -6.569641 1.03218 17.22015 2.613697 0.4366366 -16.09547 4.139973 -1.286204 -33.08146 14.04309 91.39122 7.798965 -12.70564 -0 0 30.49363 -32.24375 23.29309 19.5466 1.57679 -25.27495 -11.37894 -92.26503 5.771834 36.98482 0 0 -14.55201 4.790542 12.9276 7.618832
-18.97109 107.506 152.663 0.9524417 -12.88671 9.910405 6.502059 9.769643 1.690937 -0 21.79011 -0 -4.70119 -5.274287 -2.74719 3.830313 -7.980463 -1.363325 -0 14.01332 -0 2.547226 0.3090175 13.86467 3.018497 -5.697992 7.654931 -0.2677619 20.30703 -6.569641 1.03218 17.22015 2.613697 0.4366366 -16.09547 4.139973 -1.286204 -33.08146 14.04309 91.39122 7.798965 -12.70564 -0 0 30.49363 -32.24375 23.29309 19.5466 1.57679 -25.27495 -11.37894 -92.26503 5.771834 36.98482 0 0 -14.55201 4.790542 12.9276 7.618832
-16.64741 107.4979 158.8322 0.7777319 -12.89824 9.127393 6.502059 9.769643 1.690937 -0 21.79011 -0 -4.70119 -5.274287 -2.74719 3.830313 -7.980463 -1.363325 -0 14.01332 -0 2.547226 0.3090175 13.86467 3.018497 -5.697992 7.654931 -0.2677619 20.30703 -6.569641 1.03218 17.22015 2.613697 0.4366366 -16.09547 4.139973 -1.286204 -33.08146 14.04309 91.39122 7.798965 -12.70564 -0 0 30.49363 -32.24375 23.29309 19.5466 1.57679 -25.27495 -11.37894 -92.26503 5.771834 36.98482 0 0 -14.55201 4.790542 12.9276 7.618832
-14.40612 107.4898 165.0319 0.6028697 -12.90743 8.344317 6.502059 9.769643 1.690937 -0 21.79011 -0 -4.70119 -5.274287 -2.74719 3.830313 -7.980463 -1.363325 -0 14.01332 -0 2.547226 0.3090175 13.86467 3.018497 -5.697992 7.654931 -0.2677619 20.30703 -6.569641 1.03218 17.22015 2.613697 0.4366366 -16.09547 4.139973 -1.286204 -33.08146 14.04309 91.39122 7.798965 -12.70564 -0 0 30.49363 -32.24375 23.29309 19.5466 1.57679 -25.27495 -11.37894 -92.26503 5.771834 36.98482 0 0 -14.55201 4.790542 12.9276 7.618832
-12.24763 107.4818 171.2608 0.4278892 -12.9143 7.56119 6.502059 9.769643 1.690937 -0 21.79011 -0 -4.70119 -5.274287 -2.74719 3.830313 -7.980463 -1.363325 -0 14.01332 -0 2.547226 0.3090175 13.86467 3.018497 -5.697992 7.654931 -0.2677619 20.30703 -6.569641 1.03218 17.22015 2.613697 0.4366366 -16.09547 4.139973 -1.286204 -33.08146 14.04309 91.39122 7.798965 -12.70564 -0 0 30.49363 -32.24375 23.29309 19.5466 1.57679 -25.27495 -11.37894 -92.26503 5.771834 36.98482 0 0 -14.55201 4.790542 12.9276 7.618832
-10.17232 107.4737 177.518 0.2528248 -12.91883 6.778028 6.502059 9.769643 1.690937 -0 21.79011 -0 -4.70119 -5.274287 -2.74719 3.830313 -7.980463 -1.363325 -0 14.01332 -0 2.547226 0.3090175 13.86467 3.018497 -5.697992 7.654931 -0.2677619 20.30703 -6.569641 1.03218 17.22015 2.613697 0.4366366 -16.09547 4.139973 -1.286204 -33.08146 14.04309 91.39122 7.798965 -12.70564 -0 0 30.49363 -32.24375 23.29309 19.5466 1.57679 -25.27495 -11.37894 -92.26503 5.771834 36.98482 0 0 -14.55201 4.790542 12.9276 7.618832
-8.180554 107.4656 183.8023 0.07771081 -12.92104 5.994844 6.502059 9.769643 1.690937 -0 21.79011 -0 -4.70119 -5.274287 -2.74719 3.830313 -7.980463 -1.363325 -0 14.01332 -0 2.547226 0.3090175 13.86467 3.018497 -5.697992 7.654931 -0.2677619 20.30703 -6.569641 1.03218 17.22015 2.613697 0.4366366 -16.09547 4.139973 -1.286204 -33.08146 14.04309 91.39122 7.798965 -12.70564 -0 0 30.49363 -32.24375 23.29309 19.5466 1.57679 -25.27495 -11.37894 -92.26503 5.771834 36.98482 0 0 -14.55201 4.790542 12.9276 7.618832
-6.272688 107.4575 190.1125 -0.09741845 -12.9209 5.211654 6.502059 9.769643 1.690937 -0 21.79011 -0 -4.70119 -5.274287 -2.74719 3.830313 -7.980463 -1.363325 -0 14.01332 -0 2.547226 0.3090175 13.86467 3.018497 -5.697992 7.654931 -0.2677619 20.30703 -6.569641 1.03218 17.22015 2.613697 0.4366366 -16.09547 4.139973 -1.286204 -33.08146 14.04309 91.39122 7.798965 -12.70564 -0 0 30.49363 -32.24375 23.29309 19.5466 1.57679 -25.27495 -11.37894 -92.26503 5.771834 36.98482 0 0 -14.55201 4.790542 12.9276 7.618832
-4.449062 107.4494 196.4476 -0.2725286 -12.91844 4.428472 6.502059 9.769643 1.690937 -0 21.79011 -0 -4.70119 -5.274287 -2.74719 3.830313 -7.980463 -1.363325 -0 14.01332 -0 2.547226 0.3090175 13.86467 3.018497 -5.697992 7.654931 -0.2677619 20.30703 -6.569641 1.03218 17.22015 2.613697 0.4366366 -16.09547 4.139973 -1.286204 -33.08146 14.04309 91.39122 7.798965 -12.70564 -0 0 30.49363 -32.24375 23.29309 19.5466 1.57679 -25.27495 -11.37894 -92.26503 5.771834 36.98482 0 0 -14.55201 4.790542 12.9276 7.618832
